<svg version="1" xmlns="http://www.w3.org/2000/svg" width="933.333" height="933.333" viewBox="0 0 700.000000 700.000000"><path d="M340.8 10.4c-.1.2-3.6.6-7.6 1-4.1.3-7.7.8-8 1-.4.2-3 .6-5.7 1-21.1 2.5-52.9 15-74.1 29.2-12.8 8.6-17.9 12.9-34.9 29.5-9.6 9.4-15.7 14.5-19.5 16.4-12.7 6.3-34.1 20.2-50 32.4-11.4 8.8-42.5 40-53 53.4-21.2 26.9-39.3 60.3-51.1 94.5-3.9 11.3-11 38.9-12.4 48.2-.4 2.5-.9 5.2-1 6-.1.8-.6 4.2-.9 7.5-.4 3.3-.9 7.3-1.1 9-.2 1.6-.7 10.6-1 20-.9 24.4-.9 24.7-4.7 31.1-3.1 5.5-9 21.2-10.3 27.9-1.9 9.5-3.5 20-4.3 27.5-1 8.7-.8 36.1.2 41.5.3 1.6.8 3.9 1 5 .2 1.1.7 4 1.1 6.5.4 2.5 1.7 8.6 3 13.5 10.7 40.8 35.6 80.6 67.5 107.6 13.2 11.2 37.8 25.6 52.8 31 3.1 1.1 6.6 2.4 7.7 2.9 5.8 2.5 24.1 7.2 34.5 8.9 9.8 1.5 16.1 2.1 32 2.6 16.8.5 15.5.3 28.5 5.1 8.2 3 20.3 6.8 28.5 8.9 5.4 1.4 31.5 6.5 35.5 7 2.8.3 6.4.7 8 1 17 2.4 69.4 2.4 76.7.1.7-.3 3.7-.7 6.6-1.1 3-.3 7.4-1 9.8-1.5 2.4-.6 6.1-1.3 8.2-1.6 17.4-2.7 51.3-14.2 76.1-25.7l7.4-3.4 4.1 2.7c12.7 8.5 23.4 12.1 36.4 12.3 10.3.1 14-.4 25.2-3.7 24.7-7.2 51.2-20.3 68.9-34.1 6-4.6 21.3-19.3 27.2-26 10.8-12.3 25-34.2 31.9-49 7.6-16.3 15.4-39.9 17.4-52.5 2.6-15.7 2.7-54.7.2-62.1-.3-.7-.7-3-1-4.9-1.7-12.5-8.4-34-14.7-47.8-2.1-4.5-3.8-8.5-3.9-8.7-.1-1.1-10.3-17.8-14.9-24.4-3.5-5.2-5.2-8.7-5.6-12-.4-2.5-.8-5.7-1.1-7-.2-1.3-.6-4.5-.9-7-.6-4.5-2.9-18.5-4.1-24.6-2-11.1-10.9-40.9-14.8-49.9-.8-1.7-1.9-4.7-2.7-6.6-1.4-4-11-23.6-15.9-32.5-7.7-14.2-23-36.6-32.4-47.6-1.7-1.9-4.6-5.3-6.4-7.5-5.3-6.2-22.1-23.1-29.7-29.9-7.7-6.8-8.1-7.2-17.5-14.5s-11.8-9.8-12.6-13.4c-3.5-16.8-19.1-36.1-43.9-54.7-14.3-10.8-35-21.7-52-27.6-12.4-4.2-23.8-7-37-8.8-2.2-.3-5.3-.8-6.8-1.1-3-.6-38.3-1.5-38.9-1zm26.8 118.9c.4.4-7.1 8.4-32.2 33.9-25.5 26-28.3 30.7-28.6 47.7-.2 14.9 4.3 26.1 15 36.9 20.4 20.4 48.8 20.8 70.7 1.1 7.2-6.5 8.3-7.5 63.9-61.4 14.2-13.8 28.1-27.1 30.9-29.7l5-4.8 6.6 4.7c39.1 27.7 66.7 58.7 87.7 98.8 10 19.2 21.3 48.8 24 63.1.7 3.6.6 3.6-1.7 2.4-1.3-.7-4.2-2.5-6.4-3.9-6.7-4.3-7.8-5-14-8.3-25-13.4-49.2-21.2-72-23.3-13.9-1.2-37.8-.5-47.5 1.5-2.5.6-5.6 1.2-7 1.4-1.4.2-7.2 1.6-13 3.2l-10.5 2.7-34-.1c-46.4-.2-64.6-1.1-72.2-3.7-6.1-2.1-15.3-6.7-21-10.6-11.1-7.5-25-24.3-30-36.4-4.7-11.1-5.6-15.7-5.9-30.5-.6-27.5 5.8-43.4 25.2-62.6 13.8-13.7 29.5-20.8 48.9-22.2 10.7-.7 17.4-.7 18.1.1zm-193.1 45.9c-1.2 7.4-1.5 62-.4 67.8 2.2 12.2 7.9 32.3 11.4 40.5 3.5 8.1 10.6 22.1 13.8 27.1 5.9 9.3 17.5 23.7 27.3 33.9 8 8.3 16.4 19.1 16.4 21 0 .3 3.2 6.2 7.2 13.3 3.9 7 8.2 14.7 9.6 17.2 1.3 2.5 3.2 5.8 4.2 7.5 9.2 15.8 16.9 31.3 18.7 37.5 5.4 19.5 3.9 38.5-4.7 57.5-2.6 5.6-9.2 15.8-12.4 19.2-1.1 1.2-3.7 3.8-5.6 5.8-6.2 6.4-20.9 15.4-31.2 19.1-18.8 6.6-45.6 4.7-63.8-4.6-10.9-5.6-21.3-14.5-28.5-24.5-5.2-7.3-9.8-15.5-9.1-16.2.6-.6 5.6.5 30.1 6.9 42.1 11.1 48.8 12.2 59.2 9.4 8.7-2.3 14.5-5.8 21.8-13.1 11.2-11.2 16.5-24.4 16-40.1-.5-13.3-4.7-22.7-14.7-32.5-8.4-8.3-16.1-11.7-45.3-19.9-13.7-3.9-43.9-12.4-67-18.9-23.1-6.6-43.6-12.3-45.5-12.6-1.9-.3-4.4-.8-5.5-1-1.1-.2-2.4-.4-2.9-.4-1.5-.2.2-25.1 2.8-38.6 3.5-18.9 9.9-41.7 14.5-52 .5-1.1 1.9-4.5 3.1-7.5 12-29.4 35.4-63.9 59.4-87.4 7.7-7.5 20.3-18.6 21.2-18.6.3 0 .2 1.9-.1 4.2zm334 215.3c18.3 1.7 42.8 15.2 54.7 29.9 7.9 9.9 14.3 23.9 16.9 37.1.9 4.9 1.2 20.7.4 27.5-.7 6.3-3.1 14.4-6.3 21.3-3.5 7.3-8 14.7-9.2 14.7-.6 0-8.2-25.4-9.5-31.7-1.1-5.7-9.7-33.8-11.9-39.2-5.6-13.7-15.2-22.4-30.6-27.3-11.3-3.7-27.2-1.8-40.2 4.8-10.7 5.4-22.2 20.4-24.7 32.2-2.4 11.6-1.9 15.7 7.5 54.2 3.7 15 4.1 16.8 4.8 19.7.2 1 3.9 15.3 8.1 31.8 4.2 16.5 7.8 30.7 8 31.5.2.8 1.5 6.2 2.9 12l2.6 10.5-2.3 1.7c-3.9 3-21.9 11.6-35 16.8-7 2.7-28.5 9.6-32.8 10.5-.9.2-5.9 1.2-11 2.3-19.9 4.3-28.3 5.1-50.9 5.1-34.5 0-49.9-1.8-79.9-9.8-10.6-2.8-14.2-4.1-11.1-4.1 2.5 0 25.5-10.4 35-15.8 19.3-11.1 38.1-26.4 51.4-41.8 9.3-10.8 9.7-11.3 15.4-20.4 10.4-16.5 15.6-28.5 22.6-51.8 4.4-14.9 6.4-19.3 13.8-31.2 2.3-3.6 9.4-15.6 15.9-26.6 15.9-27.3 20.1-33.6 28-41.3 13-12.7 32.1-21.4 50.4-23 5-.4 9.2-.6 9.5-.5.3.1 3.7.5 7.5.9z"/></svg>