<svg xmlns="http://www.w3.org/2000/svg" xmlns:xlink="http://www.w3.org/1999/xlink" viewBox="0 0 665 673"><defs><filter id="a" x="979" y="673" filterUnits="userSpaceOnUse"><feGaussianBlur in="SourceAlpha" result="A"/><feFlood flood-color="#748b72"/><feComposite in2="A" operator="out"/><feOffset dx="-11" dy="-11"/><feComposite in2="SourceAlpha" operator="in"/><feBlend in2="SourceGraphic" result="F"/><feGaussianBlur in="SourceAlpha" result="G"/><feFlood flood-color="#c6e98e"/><feComposite in2="G" operator="out"/><feOffset dx="13" dy="9"/><feComposite in2="SourceAlpha" operator="in"/><feBlend in2="F"/></filter><filter id="c" width="661.5" height="621.6" x="955" y="630" filterUnits="userSpaceOnUse"><feOffset dx="7" dy="5" in="SourceAlpha"/><feGaussianBlur result="B"/><feFlood flood-opacity=".3"/><feComposite in2="B" operator="in"/><feBlend in="SourceGraphic" result="E"/><feGaussianBlur in="SourceAlpha" result="F"/><feFlood flood-color="#84009c" flood-opacity=".2"/><feComposite in2="F" operator="out"/><feOffset dx="-11" dy="-11"/><feComposite in2="SourceAlpha" operator="in"/><feBlend in2="E" mode="multiply"/></filter></defs><path fill="#7fd73e" d="M329 29a321 321 0 1 1 0 642 321 321 0 1 1 0-642Z"/><path fill="#bbeb6a" d="m8 359 6 43a324 324 0 0 0 409 241 344 344 0 0 0 104-54c50-38 89-94 110-160 7-21 4-48 13-70 1 41-9 78-21 108-51 125-204 251-394 191A318 318 0 0 1 8 359Z"/><path fill="#72b740" d="M601 309c18 27 38 63 42 103h1c15-53-1-142-15-176C579 113 481 26 306 29l-43 6a415 415 0 0 0-72 24C92 103 30 192 9 315c-6 33-1 58 4 97h1c6-32 15-60 31-85 124-195 430-207 556-18Z"/><g fill="#9ebb8b" filter="url(#a)" transform="translate(-951 -626)"><path id="b" fill="inherit" stroke="inherit" stroke-width="16" d="M1082 775q-84 85-84 203t84 203q84 84 203 84t203-84q84-84 84-203t-84-203q-84-84-203-84t-203 84Z" filter="none"/></g><use xlink:href="#b" x="-951" y="-626" fill="none" stroke="#60a130" filter="none"/><path fill="#ffffb1" d="M130 130q-82 83-82 198t82 199q83 82 199 82t198-82q82-83 82-199t-82-198q-83-82-198-82t-199 82Z" opacity=".3"/><path fill="#2d5422" d="M1410 683v-1q-51-52-124-52-72 0-123 52l-1 1q-51 51-51 124t51 124l1 1a156 156 0 0 1 17 22q34 52 29 104a17 17 0 0 1 0 2 158 158 0 0 1-5 20 2 2 0 0 1 0 1q-7 32-35 48-26 16-56 8a5 5 0 0 1-2 0q-30-7-46-34a72 72 0 0 1-9-20l71 19a50 50 0 0 0 61-36 48 48 0 0 0-6-38 48 48 0 0 0-30-23l-127-33a49 49 0 0 0-35 3 51 51 0 0 0-24 26 112 112 0 0 0-6 22 2 2 0 0 1 0 1q-17 69 19 130 38 63 110 80 70 18 131-19l1-1q57-34 76-97l7-26 4-17q5-15 16-32a117 117 0 0 1 8-9q16-15 41-26 18-7 49-12t56 13l1 1q25 19 30 49v1q5 31-14 57a70 70 0 0 1-14 15l-11-73q-3-20-19-32a47 47 0 0 0-37-10 48 48 0 0 0-32 20q-13 17-10 37l19 130a48 48 0 0 0 49 43 107 107 0 0 0 23-2q70-11 112-69 43-59 31-132h1q-11-72-70-115-58-43-130-32l-63 10h-3q-40 1-89-31a58 58 0 0 0-10-7 65 65 0 0 1-10-7q-22-22-22-54t22-54h1q22-23 53-23a84 84 0 0 1 21 3l-52 51a49 49 0 0 0-15 35 49 49 0 0 0 49 51q21 0 36-15l93-92a48 48 0 0 0 15-33 49 49 0 0 0-11-34q-5-7-12-13z" filter="url(#c)" transform="translate(-951 -626)"/><path fill="#d4c6d3" d="M331 4c66 0 114 28 142 67l9 23 29 21c17 14 34 34 47 52v2a1039 1039 0 0 0-246 349c-15 37-21 76-35 116-26-2-46-17-67-22-17-4-41 3-60-1-65-14-106-48-132-102-24-51-20-143 29-163 0-31 2-66 10-91 16-22 39-79 39-79S190 61 255 23c15-9 34-13 53-17z" opacity=".3" style="mix-blend-mode:overlay"/></svg>
